<svg xmlns="http://www.w3.org/2000/svg" data-name="Layer 1" viewBox="0 0 96 120" x="0px" y="0px"><path d="M46.734,67.187H23.211L15.157,34.066a2.971,2.971,0,0,1,2.886-3.672h58.65a5.814,5.814,0,0,1,5.674,7.079l-2.5,11.212a22.045,22.045,0,0,0-33.13,18.5ZM14.241,12.593,18.61,28h3.248l-4.97-17.521A2.6,2.6,0,0,0,14.4,8.6H9.262a1.568,1.568,0,1,0,0,3.124h3.826A1.2,1.2,0,0,1,14.241,12.593Zm74.2,55.152A19.658,19.658,0,1,1,68.78,48.087,19.679,19.679,0,0,1,88.438,67.745Zm-6.538,0a2.552,2.552,0,0,0-2.692-2.692H72.67a1.2,1.2,0,0,1-1.2-1.2V57.317a2.692,2.692,0,1,0-5.384,0v6.538a1.2,1.2,0,0,1-1.2,1.2H58.353a2.692,2.692,0,1,0,0,5.383h6.538a1.2,1.2,0,0,1,1.2,1.2v6.538a2.692,2.692,0,1,0,5.383,0V71.634a1.2,1.2,0,0,1,1.2-1.2h6.538A2.552,2.552,0,0,0,81.9,67.745ZM21.51,79.485c-4.574,0-6.657-3.189-6.657-6.151,0-2.559,1.583-5.505,5.914-6.055l-.5-2.048a8.3,8.3,0,0,0-5.241,2.484,8.091,8.091,0,0,0-2.2,5.619c0,4.06,2.98,8.171,8.677,8.171h1.3a8.144,8.144,0,0,1,.025-2.02Zm17.584-.578a8.229,8.229,0,0,1,.123,2.6H51.56a22.189,22.189,0,0,1-1.793-2.6Zm-8.078-4.168A5.856,5.856,0,1,0,36.872,80.6,5.863,5.863,0,0,0,31.016,74.739Z"/><text x="0" y="111" fill="#000000" font-size="5px" font-weight="bold" font-family="'Helvetica Neue', Helvetica, Arial-Unicode, Arial, Sans-serif">Created by krisna arga muria</text><text x="0" y="116" fill="#000000" font-size="5px" font-weight="bold" font-family="'Helvetica Neue', Helvetica, Arial-Unicode, Arial, Sans-serif">from the Noun Project</text></svg>