<svg class="svg-icon" style="width: 1em; height: 1em;vertical-align: middle;fill: currentColor;overflow: hidden;" viewBox="0 0 1024 1024" version="1.1" xmlns="http://www.w3.org/2000/svg"><path d="M497.024 904a1049.6 1049.6 0 0 1-82.24-106.24c-48.064-71.488-76.8-135.488-76.8-185.792 0-93.76 77.888-169.984 173.568-169.984 95.296 0 173.184 76.16 173.568 169.92 0.256 50.368-28.48 114.368-76.8 185.856a1043.712 1043.712 0 0 1-82.688 106.24h346.368V400H152v504h345.024z m-393.024 0V400h-19.84c-42.048 0-76.16-37.632-76.16-84.032 0-8.96 1.28-17.92 3.904-26.56L62.72 121.408C73.088 87.168 102.208 64 135.04 64h753.92c32.768 0 61.952 23.168 72.32 57.408l50.816 168c13.312 44.032-8.32 91.584-48.256 106.24a69.76 69.76 0 0 1-24.064 4.352h-19.776v504H992a24 24 0 1 1 0 48H32a24 24 0 1 1 0-48h72zM132.672 112c-11.008 0-20.736 8.32-24.256 20.48L57.28 312.576a34.752 34.752 0 0 0-1.28 9.472c0 16.64 11.456 30.016 25.6 30.016h860.8a22.144 22.144 0 0 0 8.128-1.536c13.44-5.248 20.608-22.208 16.128-37.952l-51.072-179.968c-3.52-12.288-13.248-20.544-24.32-20.544H132.736zM512 664a48 48 0 1 1 0-96 48 48 0 0 1 0 96z m-0.64 194.048c74.88-89.344 132.928-182.656 132.672-245.952-0.384-71.424-59.776-129.6-132.48-129.6-73.024 0-132.416 58.112-132.416 129.472 0 63.36 57.792 156.736 132.224 246.08z" fill="#000000" /></svg>